<svg width="30" height="30" viewBox="0 0 30 30" fill="none" xmlns="http://www.w3.org/2000/svg">
<g clip-path="url(#clip0_172_11403)">
<circle cx="15" cy="15" r="15" fill="#744037"/>
<g clip-path="url(#clip1_172_11403)">
<mask id="path-2-outside-1_172_11403" maskUnits="userSpaceOnUse" x="5.92188" y="9.76562" width="18" height="12" fill="black">
<rect fill="white" x="5.92188" y="9.76562" width="18" height="12"/>
<path fill-rule="evenodd" clip-rule="evenodd" d="M22.8409 19.0947C22.467 18.3415 21.9743 17.6536 21.3817 17.0571C21.1801 16.8227 20.9436 16.5914 20.7591 16.4108L20.7333 16.3856C20.6381 16.2924 20.5594 16.215 20.495 16.1484C21.3053 15.0217 21.9987 13.8153 22.5646 12.5478L22.5874 12.4966L22.6034 12.443C22.6777 12.1935 22.7634 11.7191 22.4604 11.2903C22.1472 10.8472 21.6458 10.7672 21.31 10.7672H19.7651C19.4431 10.7525 19.1242 10.8395 18.854 11.0165C18.5817 11.1949 18.3735 11.455 18.2589 11.7591C17.9262 12.5516 17.5099 13.3054 17.0176 14.0079V12.1975C17.0176 11.9635 16.9956 11.572 16.745 11.2416C16.445 10.846 16.0111 10.7672 15.7099 10.7672H13.2586C12.9428 10.7599 12.6356 10.8729 12.3996 11.0837C12.1579 11.2995 12.0097 11.6011 11.9866 11.9244L11.9844 11.955V11.9857C11.9844 12.3195 12.1167 12.5657 12.2223 12.7205C12.2696 12.7898 12.3202 12.8529 12.3522 12.8928L12.3596 12.902C12.3937 12.9445 12.4164 12.9728 12.4392 13.0039C12.4993 13.0856 12.5857 13.2115 12.6101 13.5374V14.5501C12.1875 13.8554 11.7417 12.931 11.4063 11.9436L11.4011 11.9285L11.3954 11.9135C11.3118 11.6945 11.1776 11.3757 10.909 11.1318C10.5951 10.8469 10.2239 10.7672 9.88625 10.7672H8.31879C7.97723 10.7672 7.56546 10.8471 7.25823 11.1712C6.95609 11.49 6.92188 11.8719 6.92188 12.0749V12.1664L6.94115 12.2559C7.37531 14.2711 8.2699 16.1582 9.55463 17.7697C10.1371 18.6882 10.9263 19.4581 11.8596 20.0177C12.8077 20.5862 13.8774 20.9213 14.9804 20.9954L15.0091 20.9973H15.038C15.537 20.9973 16.0572 20.9543 16.4484 20.6936C16.9762 20.342 17.0176 19.8019 17.0176 19.5327V18.7504C17.153 18.8598 17.3211 19.0072 17.5268 19.2053C17.7754 19.4542 17.9734 19.6699 18.1433 19.8581L18.2339 19.9589L18.2344 19.9594C18.3663 20.1063 18.4961 20.2509 18.6143 20.3697C18.7628 20.519 18.946 20.6836 19.1762 20.8051C19.4255 20.9368 19.6872 20.9963 19.9651 20.9963H21.5337C21.8641 20.9963 22.338 20.9181 22.6713 20.5318C23.0344 20.1108 23.0067 19.5948 22.8925 19.2239L22.8719 19.1573L22.8409 19.0947ZM18.9089 19.1673C18.7324 18.9716 18.5195 18.7395 18.2504 18.4705L18.2482 18.4683C17.3158 17.5694 16.8802 17.4128 16.5722 17.4128C16.4083 17.4128 16.227 17.4312 16.1094 17.5777C16.0539 17.6469 16.0247 17.7303 16.0084 17.8173C15.992 17.9041 15.9864 18.0061 15.9864 18.1222V19.5327C15.9864 19.7079 15.9576 19.7814 15.8766 19.8355C15.7686 19.9074 15.538 19.9657 15.0438 19.9661C14.1058 19.9022 13.1963 19.6168 12.3899 19.1333C11.5819 18.6488 10.9005 17.9792 10.4019 17.1798L10.3965 17.1711L10.3901 17.1631C9.19294 15.6731 8.35877 13.9252 7.95333 12.0575C7.95553 11.9675 7.97504 11.9141 8.00664 11.8807C8.03921 11.8464 8.11812 11.7985 8.31879 11.7985H9.88625C10.0606 11.7985 10.1509 11.8364 10.2158 11.8954C10.2894 11.9622 10.3533 12.0757 10.4309 12.2784C10.8156 13.41 11.3359 14.4683 11.8286 15.2464C12.0748 15.6353 12.3172 15.9591 12.5355 16.1878C12.6445 16.3021 12.7514 16.3967 12.8534 16.464C12.9522 16.5291 13.0641 16.5804 13.1792 16.5804C13.24 16.5804 13.311 16.5742 13.3794 16.5439C13.453 16.5113 13.5101 16.457 13.5505 16.3842C13.6218 16.2555 13.6414 16.0649 13.6414 15.8151V13.5026L13.641 13.4971C13.6054 12.9345 13.4355 12.618 13.2701 12.3931C13.2339 12.3438 13.1981 12.2992 13.1668 12.2602L13.1583 12.2496C13.1239 12.2067 13.0966 12.1721 13.0741 12.1392C13.033 12.0789 13.0171 12.0369 13.0157 11.9918C13.0211 11.9383 13.0463 11.8887 13.0865 11.8528C13.1282 11.8156 13.1828 11.7962 13.2387 11.7985H15.7099C15.8516 11.7985 15.8993 11.8331 15.9233 11.8647C15.9572 11.9094 15.9864 12.0024 15.9864 12.1975V15.3109C15.9864 15.6807 16.1569 15.9311 16.4044 15.9311C16.6893 15.9311 16.8947 15.7583 17.2538 15.3991L17.2598 15.3931L17.2652 15.3865C18.0701 14.405 18.728 13.3114 19.2176 12.1402L19.2207 12.1315C19.2576 12.028 19.3272 11.9394 19.4191 11.8792C19.511 11.819 19.62 11.7905 19.7296 11.7981L19.7356 11.7985H21.31C21.5247 11.7985 21.5954 11.8531 21.6182 11.8855C21.6425 11.9198 21.6594 11.9935 21.6181 12.138C21.0536 13.4006 20.3556 14.599 19.5361 15.7132L19.531 15.721C19.4514 15.8427 19.3642 15.9773 19.3515 16.1318C19.338 16.2978 19.4098 16.4487 19.5354 16.6104C19.627 16.7458 19.8159 16.9306 20.0075 17.1182L20.0256 17.1359C20.2264 17.3325 20.444 17.5455 20.6187 17.7517L20.6234 17.7572L20.6285 17.7622C21.1493 18.2817 21.5823 18.8823 21.9108 19.5403C21.9632 19.7195 21.9311 19.8111 21.8903 19.8583C21.8427 19.9136 21.7359 19.9651 21.5337 19.9651H19.9651C19.8426 19.9651 19.7481 19.9409 19.6577 19.8932C19.5636 19.8435 19.4668 19.7645 19.3454 19.6424C19.2477 19.5441 19.1408 19.4252 19.0105 19.2802C18.9782 19.2442 18.9444 19.2065 18.9089 19.1673Z"/>
</mask>
<path fill-rule="evenodd" clip-rule="evenodd" d="M22.8409 19.0947C22.467 18.3415 21.9743 17.6536 21.3817 17.0571C21.1801 16.8227 20.9436 16.5914 20.7591 16.4108L20.7333 16.3856C20.6381 16.2924 20.5594 16.215 20.495 16.1484C21.3053 15.0217 21.9987 13.8153 22.5646 12.5478L22.5874 12.4966L22.6034 12.443C22.6777 12.1935 22.7634 11.7191 22.4604 11.2903C22.1472 10.8472 21.6458 10.7672 21.31 10.7672H19.7651C19.4431 10.7525 19.1242 10.8395 18.854 11.0165C18.5817 11.1949 18.3735 11.455 18.2589 11.7591C17.9262 12.5516 17.5099 13.3054 17.0176 14.0079V12.1975C17.0176 11.9635 16.9956 11.572 16.745 11.2416C16.445 10.846 16.0111 10.7672 15.7099 10.7672H13.2586C12.9428 10.7599 12.6356 10.8729 12.3996 11.0837C12.1579 11.2995 12.0097 11.6011 11.9866 11.9244L11.9844 11.955V11.9857C11.9844 12.3195 12.1167 12.5657 12.2223 12.7205C12.2696 12.7898 12.3202 12.8529 12.3522 12.8928L12.3596 12.902C12.3937 12.9445 12.4164 12.9728 12.4392 13.0039C12.4993 13.0856 12.5857 13.2115 12.6101 13.5374V14.5501C12.1875 13.8554 11.7417 12.931 11.4063 11.9436L11.4011 11.9285L11.3954 11.9135C11.3118 11.6945 11.1776 11.3757 10.909 11.1318C10.5951 10.8469 10.2239 10.7672 9.88625 10.7672H8.31879C7.97723 10.7672 7.56546 10.8471 7.25823 11.1712C6.95609 11.49 6.92188 11.8719 6.92188 12.0749V12.1664L6.94115 12.2559C7.37531 14.2711 8.2699 16.1582 9.55463 17.7697C10.1371 18.6882 10.9263 19.4581 11.8596 20.0177C12.8077 20.5862 13.8774 20.9213 14.9804 20.9954L15.0091 20.9973H15.038C15.537 20.9973 16.0572 20.9543 16.4484 20.6936C16.9762 20.342 17.0176 19.8019 17.0176 19.5327V18.7504C17.153 18.8598 17.3211 19.0072 17.5268 19.2053C17.7754 19.4542 17.9734 19.6699 18.1433 19.8581L18.2339 19.9589L18.2344 19.9594C18.3663 20.1063 18.4961 20.2509 18.6143 20.3697C18.7628 20.519 18.946 20.6836 19.1762 20.8051C19.4255 20.9368 19.6872 20.9963 19.9651 20.9963H21.5337C21.8641 20.9963 22.338 20.9181 22.6713 20.5318C23.0344 20.1108 23.0067 19.5948 22.8925 19.2239L22.8719 19.1573L22.8409 19.0947ZM18.9089 19.1673C18.7324 18.9716 18.5195 18.7395 18.2504 18.4705L18.2482 18.4683C17.3158 17.5694 16.8802 17.4128 16.5722 17.4128C16.4083 17.4128 16.227 17.4312 16.1094 17.5777C16.0539 17.6469 16.0247 17.7303 16.0084 17.8173C15.992 17.9041 15.9864 18.0061 15.9864 18.1222V19.5327C15.9864 19.7079 15.9576 19.7814 15.8766 19.8355C15.7686 19.9074 15.538 19.9657 15.0438 19.9661C14.1058 19.9022 13.1963 19.6168 12.3899 19.1333C11.5819 18.6488 10.9005 17.9792 10.4019 17.1798L10.3965 17.1711L10.3901 17.1631C9.19294 15.6731 8.35877 13.9252 7.95333 12.0575C7.95553 11.9675 7.97504 11.9141 8.00664 11.8807C8.03921 11.8464 8.11812 11.7985 8.31879 11.7985H9.88625C10.0606 11.7985 10.1509 11.8364 10.2158 11.8954C10.2894 11.9622 10.3533 12.0757 10.4309 12.2784C10.8156 13.41 11.3359 14.4683 11.8286 15.2464C12.0748 15.6353 12.3172 15.9591 12.5355 16.1878C12.6445 16.3021 12.7514 16.3967 12.8534 16.464C12.9522 16.5291 13.0641 16.5804 13.1792 16.5804C13.24 16.5804 13.311 16.5742 13.3794 16.5439C13.453 16.5113 13.5101 16.457 13.5505 16.3842C13.6218 16.2555 13.6414 16.0649 13.6414 15.8151V13.5026L13.641 13.4971C13.6054 12.9345 13.4355 12.618 13.2701 12.3931C13.2339 12.3438 13.1981 12.2992 13.1668 12.2602L13.1583 12.2496C13.1239 12.2067 13.0966 12.1721 13.0741 12.1392C13.033 12.0789 13.0171 12.0369 13.0157 11.9918C13.0211 11.9383 13.0463 11.8887 13.0865 11.8528C13.1282 11.8156 13.1828 11.7962 13.2387 11.7985H15.7099C15.8516 11.7985 15.8993 11.8331 15.9233 11.8647C15.9572 11.9094 15.9864 12.0024 15.9864 12.1975V15.3109C15.9864 15.6807 16.1569 15.9311 16.4044 15.9311C16.6893 15.9311 16.8947 15.7583 17.2538 15.3991L17.2598 15.3931L17.2652 15.3865C18.0701 14.405 18.728 13.3114 19.2176 12.1402L19.2207 12.1315C19.2576 12.028 19.3272 11.9394 19.4191 11.8792C19.511 11.819 19.62 11.7905 19.7296 11.7981L19.7356 11.7985H21.31C21.5247 11.7985 21.5954 11.8531 21.6182 11.8855C21.6425 11.9198 21.6594 11.9935 21.6181 12.138C21.0536 13.4006 20.3556 14.599 19.5361 15.7132L19.531 15.721C19.4514 15.8427 19.3642 15.9773 19.3515 16.1318C19.338 16.2978 19.4098 16.4487 19.5354 16.6104C19.627 16.7458 19.8159 16.9306 20.0075 17.1182L20.0256 17.1359C20.2264 17.3325 20.444 17.5455 20.6187 17.7517L20.6234 17.7572L20.6285 17.7622C21.1493 18.2817 21.5823 18.8823 21.9108 19.5403C21.9632 19.7195 21.9311 19.8111 21.8903 19.8583C21.8427 19.9136 21.7359 19.9651 21.5337 19.9651H19.9651C19.8426 19.9651 19.7481 19.9409 19.6577 19.8932C19.5636 19.8435 19.4668 19.7645 19.3454 19.6424C19.2477 19.5441 19.1408 19.4252 19.0105 19.2802C18.9782 19.2442 18.9444 19.2065 18.9089 19.1673Z" fill="white"/>
<path fill-rule="evenodd" clip-rule="evenodd" d="M22.8409 19.0947C22.467 18.3415 21.9743 17.6536 21.3817 17.0571C21.1801 16.8227 20.9436 16.5914 20.7591 16.4108L20.7333 16.3856C20.6381 16.2924 20.5594 16.215 20.495 16.1484C21.3053 15.0217 21.9987 13.8153 22.5646 12.5478L22.5874 12.4966L22.6034 12.443C22.6777 12.1935 22.7634 11.7191 22.4604 11.2903C22.1472 10.8472 21.6458 10.7672 21.31 10.7672H19.7651C19.4431 10.7525 19.1242 10.8395 18.854 11.0165C18.5817 11.1949 18.3735 11.455 18.2589 11.7591C17.9262 12.5516 17.5099 13.3054 17.0176 14.0079V12.1975C17.0176 11.9635 16.9956 11.572 16.745 11.2416C16.445 10.846 16.0111 10.7672 15.7099 10.7672H13.2586C12.9428 10.7599 12.6356 10.8729 12.3996 11.0837C12.1579 11.2995 12.0097 11.6011 11.9866 11.9244L11.9844 11.955V11.9857C11.9844 12.3195 12.1167 12.5657 12.2223 12.7205C12.2696 12.7898 12.3202 12.8529 12.3522 12.8928L12.3596 12.902C12.3937 12.9445 12.4164 12.9728 12.4392 13.0039C12.4993 13.0856 12.5857 13.2115 12.6101 13.5374V14.5501C12.1875 13.8554 11.7417 12.931 11.4063 11.9436L11.4011 11.9285L11.3954 11.9135C11.3118 11.6945 11.1776 11.3757 10.909 11.1318C10.5951 10.8469 10.2239 10.7672 9.88625 10.7672H8.31879C7.97723 10.7672 7.56546 10.8471 7.25823 11.1712C6.95609 11.49 6.92188 11.8719 6.92188 12.0749V12.1664L6.94115 12.2559C7.37531 14.2711 8.2699 16.1582 9.55463 17.7697C10.1371 18.6882 10.9263 19.4581 11.8596 20.0177C12.8077 20.5862 13.8774 20.9213 14.9804 20.9954L15.0091 20.9973H15.038C15.537 20.9973 16.0572 20.9543 16.4484 20.6936C16.9762 20.342 17.0176 19.8019 17.0176 19.5327V18.7504C17.153 18.8598 17.3211 19.0072 17.5268 19.2053C17.7754 19.4542 17.9734 19.6699 18.1433 19.8581L18.2339 19.9589L18.2344 19.9594C18.3663 20.1063 18.4961 20.2509 18.6143 20.3697C18.7628 20.519 18.946 20.6836 19.1762 20.8051C19.4255 20.9368 19.6872 20.9963 19.9651 20.9963H21.5337C21.8641 20.9963 22.338 20.9181 22.6713 20.5318C23.0344 20.1108 23.0067 19.5948 22.8925 19.2239L22.8719 19.1573L22.8409 19.0947ZM18.9089 19.1673C18.7324 18.9716 18.5195 18.7395 18.2504 18.4705L18.2482 18.4683C17.3158 17.5694 16.8802 17.4128 16.5722 17.4128C16.4083 17.4128 16.227 17.4312 16.1094 17.5777C16.0539 17.6469 16.0247 17.7303 16.0084 17.8173C15.992 17.9041 15.9864 18.0061 15.9864 18.1222V19.5327C15.9864 19.7079 15.9576 19.7814 15.8766 19.8355C15.7686 19.9074 15.538 19.9657 15.0438 19.9661C14.1058 19.9022 13.1963 19.6168 12.3899 19.1333C11.5819 18.6488 10.9005 17.9792 10.4019 17.1798L10.3965 17.1711L10.3901 17.1631C9.19294 15.6731 8.35877 13.9252 7.95333 12.0575C7.95553 11.9675 7.97504 11.9141 8.00664 11.8807C8.03921 11.8464 8.11812 11.7985 8.31879 11.7985H9.88625C10.0606 11.7985 10.1509 11.8364 10.2158 11.8954C10.2894 11.9622 10.3533 12.0757 10.4309 12.2784C10.8156 13.41 11.3359 14.4683 11.8286 15.2464C12.0748 15.6353 12.3172 15.9591 12.5355 16.1878C12.6445 16.3021 12.7514 16.3967 12.8534 16.464C12.9522 16.5291 13.0641 16.5804 13.1792 16.5804C13.24 16.5804 13.311 16.5742 13.3794 16.5439C13.453 16.5113 13.5101 16.457 13.5505 16.3842C13.6218 16.2555 13.6414 16.0649 13.6414 15.8151V13.5026L13.641 13.4971C13.6054 12.9345 13.4355 12.618 13.2701 12.3931C13.2339 12.3438 13.1981 12.2992 13.1668 12.2602L13.1583 12.2496C13.1239 12.2067 13.0966 12.1721 13.0741 12.1392C13.033 12.0789 13.0171 12.0369 13.0157 11.9918C13.0211 11.9383 13.0463 11.8887 13.0865 11.8528C13.1282 11.8156 13.1828 11.7962 13.2387 11.7985H15.7099C15.8516 11.7985 15.8993 11.8331 15.9233 11.8647C15.9572 11.9094 15.9864 12.0024 15.9864 12.1975V15.3109C15.9864 15.6807 16.1569 15.9311 16.4044 15.9311C16.6893 15.9311 16.8947 15.7583 17.2538 15.3991L17.2598 15.3931L17.2652 15.3865C18.0701 14.405 18.728 13.3114 19.2176 12.1402L19.2207 12.1315C19.2576 12.028 19.3272 11.9394 19.4191 11.8792C19.511 11.819 19.62 11.7905 19.7296 11.7981L19.7356 11.7985H21.31C21.5247 11.7985 21.5954 11.8531 21.6182 11.8855C21.6425 11.9198 21.6594 11.9935 21.6181 12.138C21.0536 13.4006 20.3556 14.599 19.5361 15.7132L19.531 15.721C19.4514 15.8427 19.3642 15.9773 19.3515 16.1318C19.338 16.2978 19.4098 16.4487 19.5354 16.6104C19.627 16.7458 19.8159 16.9306 20.0075 17.1182L20.0256 17.1359C20.2264 17.3325 20.444 17.5455 20.6187 17.7517L20.6234 17.7572L20.6285 17.7622C21.1493 18.2817 21.5823 18.8823 21.9108 19.5403C21.9632 19.7195 21.9311 19.8111 21.8903 19.8583C21.8427 19.9136 21.7359 19.9651 21.5337 19.9651H19.9651C19.8426 19.9651 19.7481 19.9409 19.6577 19.8932C19.5636 19.8435 19.4668 19.7645 19.3454 19.6424C19.2477 19.5441 19.1408 19.4252 19.0105 19.2802C18.9782 19.2442 18.9444 19.2065 18.9089 19.1673Z" stroke="white" stroke-width="0.4" mask="url(#path-2-outside-1_172_11403)"/>
</g>
</g>
<defs>
<clipPath id="clip0_172_11403">
<rect width="30" height="30" fill="white"/>
</clipPath>
<clipPath id="clip1_172_11403">
<rect width="16.5" height="16.5" fill="white" transform="translate(6.75 7.5)"/>
</clipPath>
</defs>
</svg>
