<svg width="30" height="30" viewBox="0 0 30 30" fill="none" xmlns="http://www.w3.org/2000/svg">
<g clip-path="url(#clip0_172_11409)">
<circle cx="15" cy="15" r="15" fill="#744037"/>
<path fill-rule="evenodd" clip-rule="evenodd" d="M20.2024 9.82681C19.5267 9.14665 18.7228 8.60734 17.8371 8.24011C16.9515 7.87289 16.0018 7.68506 15.0431 7.68749C11.0228 7.68749 7.75006 10.9594 7.74844 14.9813C7.74844 16.2667 8.084 17.5212 8.72181 18.6278L7.6875 22.4067L11.5542 21.3919C12.6238 21.9742 13.822 22.2795 15.0398 22.28H15.0431C19.0625 22.28 22.3353 19.0081 22.3369 14.9862C22.3396 14.0278 22.1524 13.0784 21.7861 12.1929C21.4197 11.3073 20.8815 10.5031 20.2024 9.82681ZM15.0431 21.0491H15.0406C13.9547 21.0492 12.8888 20.757 11.9548 20.2032L11.7338 20.0716L9.43925 20.6737L10.0511 18.4369L9.90725 18.2077C9.30014 17.2412 8.97875 16.1227 8.98019 14.9813C8.98181 11.6387 11.7013 8.91924 15.0455 8.91924C15.842 8.91747 16.6309 9.07368 17.3665 9.37883C18.1022 9.68398 18.7701 10.132 19.3314 10.697C19.8958 11.2593 20.3432 11.9278 20.6476 12.6641C20.952 13.4003 21.1075 14.1895 21.1051 14.9862C21.1035 18.3288 18.3841 21.0491 15.0431 21.0491ZM18.3686 16.508C18.1858 16.4162 17.2904 15.9758 17.1231 15.9149C16.9565 15.8539 16.8354 15.8239 16.7136 16.0059C16.5917 16.1879 16.2423 16.5982 16.1359 16.7201C16.0294 16.8419 15.923 16.8566 15.741 16.7656C15.559 16.6746 14.9716 16.482 14.2753 15.8612C13.7333 15.3778 13.3677 14.7814 13.2613 14.5986C13.1548 14.4158 13.2499 14.3175 13.3417 14.2265C13.4237 14.1452 13.5237 14.0136 13.6147 13.9072C13.7057 13.8007 13.7358 13.7252 13.7967 13.6033C13.8576 13.4814 13.8276 13.375 13.7813 13.284C13.7358 13.1922 13.3709 12.2952 13.219 11.9304C13.0719 11.5769 12.9216 11.6241 12.8095 11.6192C12.6934 11.6144 12.5772 11.6123 12.4609 11.6127C12.3685 11.615 12.2776 11.6365 12.1938 11.6756C12.1101 11.7148 12.0353 11.7708 11.9743 11.8402C11.8069 12.023 11.3364 12.4634 11.3364 13.3604C11.3364 14.2574 11.9897 15.1243 12.0807 15.2462C12.1717 15.3681 13.3661 17.2084 15.1942 17.9981C15.6297 18.1858 15.9693 18.2979 16.2334 18.3824C16.6697 18.5214 17.067 18.5011 17.3814 18.4547C17.7316 18.4027 18.4596 18.0144 18.6116 17.5886C18.7635 17.1629 18.7635 16.7981 18.718 16.7217C18.6725 16.6453 18.5498 16.599 18.3686 16.508Z" fill="white"/>
</g>
<defs>
<clipPath id="clip0_172_11409">
<rect width="30" height="30" fill="white"/>
</clipPath>
</defs>
</svg>
