<svg width="30" height="30" viewBox="0 0 30 30" fill="none" xmlns="http://www.w3.org/2000/svg">
<path d="M22.3913 6.28688L15 13.6781L7.60877 6.28688C7.431 6.1242 7.19732 6.03639 6.95641 6.04173C6.7155 6.04706 6.48594 6.14514 6.31555 6.31553C6.14516 6.48593 6.04708 6.71549 6.04174 6.9564C6.0364 7.1973 6.12422 7.43099 6.28689 7.60876L13.6744 15L6.28502 22.3894C6.19474 22.4754 6.12258 22.5786 6.07276 22.693C6.02295 22.8073 5.99649 22.9304 5.99494 23.0551C5.9934 23.1798 6.0168 23.3035 6.06377 23.4191C6.11074 23.5346 6.18032 23.6396 6.26844 23.7278C6.35656 23.8161 6.46143 23.8858 6.57689 23.9329C6.69235 23.9801 6.81606 24.0036 6.94076 24.0023C7.06546 24.0009 7.18863 23.9746 7.30302 23.925C7.41742 23.8753 7.52073 23.8033 7.60689 23.7131L15 16.3238L22.3913 23.715C22.569 23.8777 22.8027 23.9655 23.0436 23.9602C23.2845 23.9548 23.5141 23.8567 23.6845 23.6863C23.8549 23.516 23.953 23.2864 23.9583 23.0455C23.9636 22.8046 23.8758 22.5709 23.7131 22.3931L16.3219 15.0019L23.7131 7.60876C23.8034 7.52272 23.8756 7.41951 23.9254 7.30518C23.9752 7.19086 24.0017 7.06773 24.0032 6.94303C24.0048 6.81833 23.9814 6.69459 23.9344 6.57906C23.8874 6.46354 23.8178 6.35857 23.7297 6.27033C23.6416 6.18208 23.5367 6.11235 23.4213 6.06521C23.3058 6.01808 23.1821 5.99451 23.0574 5.99588C22.9327 5.99724 22.8095 6.02353 22.6951 6.07318C22.5807 6.12283 22.4774 6.19485 22.3913 6.28501V6.28688Z" fill="#D2D2DB"/>
</svg>
